<svg width="85" height="134" viewBox="0 0 85 134" fill="none" xmlns="http://www.w3.org/2000/svg">
<path id="Vector 1" d="M83.8861 115.49C84.7926 114.449 84.6833 112.87 83.6418 111.963L66.6709 97.1902C65.6295 96.2837 64.0504 96.393 63.1438 97.4345C62.2373 98.4759 62.3466 100.055 63.388 100.962L78.4733 114.093L65.3419 129.178C64.4353 130.22 64.5447 131.799 65.5861 132.705C66.6275 133.612 68.2067 133.503 69.1132 132.461L83.8861 115.49ZM0.5 -2.04766e-05C0.499815 22.57 6.01085 52.4491 18.8465 76.2827C31.7014 100.152 52.214 118.417 82.1731 116.343L81.8277 111.355C54.5801 113.241 35.5924 96.8322 23.2487 73.9119C10.8856 50.9559 5.49982 21.93 5.5 2.04766e-05L0.5 -2.04766e-05Z" fill="#000AF1"/>
</svg>
