<svg width="231" height="28" viewBox="0 0 231 28" fill="none" xmlns="http://www.w3.org/2000/svg">
<path d="M72.7413 2.55433L68.7874 13.7529L71.5834 21.5867L79.5158 2.54053L72.7413 2.55433ZM61.305 2.55433H55.0381L64.8473 26.086H69.6929L61.305 2.55433Z" fill="white"/>
<path d="M103.963 14.3686C103.976 16.0044 103.666 17.6265 103.052 19.1412C102.419 20.6284 101.496 21.9732 100.339 23.0967C99.1606 24.2446 97.7721 25.1512 96.2503 25.7659C94.732 26.38 93.1124 26.7012 91.476 26.7127C89.8392 26.7054 88.2189 26.3841 86.7018 25.7659C85.1822 25.164 83.8012 24.2556 82.6436 23.0967C81.4781 21.9684 80.5545 20.6119 79.93 19.1108C79.2976 17.6108 78.9717 15.998 78.9717 14.3686C78.9717 12.7392 79.2976 11.1265 79.93 9.6264C80.5539 8.12333 81.4774 6.7649 82.6436 5.63499C83.8009 4.46756 85.1826 3.54991 86.7045 2.93817C88.2213 2.32244 89.8432 2.01112 91.4788 2.02175C93.1247 2.01334 94.7566 2.32742 96.2832 2.94645C98.564 3.84204 100.52 5.41411 101.892 7.4541C103.265 9.4941 103.988 11.9056 103.966 14.3686H103.963ZM91.4678 21.2694C92.3017 21.2843 93.1287 21.115 93.8905 20.7735C94.6523 20.4321 95.3305 19.9267 95.8771 19.293C96.4546 18.6539 96.8954 17.9023 97.1722 17.0848C97.4593 16.2031 97.5993 15.2797 97.5865 14.3521C97.5865 12.3885 97.0057 10.7434 95.8442 9.41662C95.3034 8.78448 94.631 8.27974 93.8747 7.93819C93.1184 7.59664 92.2967 7.42664 91.4678 7.44024C90.6359 7.41994 89.81 7.58686 89.0505 7.92879C88.2909 8.27073 87.6169 8.77906 87.0777 9.41662C85.9271 10.7361 85.3518 12.3812 85.3518 14.3521C85.3518 16.3984 85.917 18.0545 87.0475 19.3206C87.5964 19.9533 88.2769 20.4568 89.0408 20.7955C89.8047 21.1342 90.6332 21.2997 91.4678 21.2804V21.2694Z" fill="white"/>
<path d="M107.468 26.0862V2.55176H113.908V26.0862H107.468Z" fill="white"/>
<path d="M118.571 26.0862V2.55176H124.945V20.5904H132.872V26.0862H118.571Z" fill="white"/>
<path d="M136.396 26.0862V2.55176H150.727V7.7301H142.61V11.796H150.266V16.8584H142.61V20.8167H150.727V26.0889L136.396 26.0862Z" fill="white"/>
<path d="M154.884 26.0862V2.55176H159.76C163.444 2.55176 166.015 2.72382 167.475 3.06794C168.897 3.37183 170.244 3.95632 171.44 4.78761C172.903 5.78436 174.068 7.16334 174.809 8.77626C175.57 10.5304 175.962 12.4234 175.962 14.3369C175.962 16.2505 175.57 18.1434 174.809 19.8976C174.057 21.5029 172.894 22.8784 171.44 23.8834C170.27 24.687 168.956 25.255 167.571 25.5562C166.166 25.9095 163.919 26.0862 160.83 26.0862H154.884ZM161.195 20.814H162.265C164.778 20.814 166.607 20.2895 167.752 19.2406C168.897 18.1917 169.473 16.5594 169.478 14.3438C169.478 12.119 168.903 10.4757 167.752 9.41389C166.602 8.35209 164.773 7.82303 162.265 7.82671H161.195V20.814Z" fill="white"/>
</svg>
